<mxfile host="app.diagrams.net" agent="Mozilla/5.0 (Macintosh; Intel Mac OS X 10_15_7) AppleWebKit/605.1.15 (KHTML, like Gecko) Version/18.6 Safari/605.1.15" version="28.1.1">
  <diagram name="Page-1" id="rKbMxFlwknsExtLAZOYy">
    <mxGraphModel dx="1221" dy="1197" grid="1" gridSize="10" guides="1" tooltips="1" connect="1" arrows="1" fold="1" page="1" pageScale="1" pageWidth="915" pageHeight="570" math="0" shadow="0">
      <root>
        <mxCell id="0" />
        <mxCell id="1" parent="0" />
        <mxCell id="xltBiAbtLzyJ1PYhCGVp-10" value="" style="rounded=0;whiteSpace=wrap;html=1;" vertex="1" parent="1">
          <mxGeometry x="259" y="311" width="260" height="60" as="geometry" />
        </mxCell>
        <mxCell id="LiaBlkNXl9YPgVuIt6pR-18" value="" style="rounded=0;whiteSpace=wrap;html=1;" parent="1" vertex="1">
          <mxGeometry x="329" y="13" width="190" height="180" as="geometry" />
        </mxCell>
        <mxCell id="LiaBlkNXl9YPgVuIt6pR-19" value="hdlib.vector.Vector" style="text;html=1;strokeColor=none;fillColor=none;align=center;verticalAlign=middle;whiteSpace=wrap;rounded=0;" parent="1" vertex="1">
          <mxGeometry x="335" y="13" width="110" height="20" as="geometry" />
        </mxCell>
        <mxCell id="LiaBlkNXl9YPgVuIt6pR-42" value="" style="rounded=0;whiteSpace=wrap;html=1;" parent="1" vertex="1">
          <mxGeometry x="99" y="13" width="190" height="180" as="geometry" />
        </mxCell>
        <mxCell id="LiaBlkNXl9YPgVuIt6pR-43" value="hdlib.space.Space" style="text;html=1;strokeColor=none;fillColor=none;align=center;verticalAlign=middle;whiteSpace=wrap;rounded=0;" parent="1" vertex="1">
          <mxGeometry x="99" y="13" width="110" height="20" as="geometry" />
        </mxCell>
        <mxCell id="2maI9EDIhwoQU8j4r-Qi-7" value="" style="edgeStyle=none;curved=1;rounded=0;orthogonalLoop=1;jettySize=auto;html=1;fontSize=12;startSize=8;endSize=8;" parent="1" target="LiaBlkNXl9YPgVuIt6pR-71" edge="1">
          <mxGeometry relative="1" as="geometry">
            <mxPoint x="261.3010380622836" y="33" as="sourcePoint" />
          </mxGeometry>
        </mxCell>
        <mxCell id="LiaBlkNXl9YPgVuIt6pR-101" style="edgeStyle=orthogonalEdgeStyle;rounded=0;orthogonalLoop=1;jettySize=auto;html=1;exitX=0;exitY=0.5;exitDx=0;exitDy=0;entryX=1;entryY=0.5;entryDx=0;entryDy=0;" parent="1" source="LiaBlkNXl9YPgVuIt6pR-74" target="LiaBlkNXl9YPgVuIt6pR-65" edge="1">
          <mxGeometry relative="1" as="geometry">
            <Array as="points">
              <mxPoint x="309" y="23" />
              <mxPoint x="309" y="112" />
            </Array>
          </mxGeometry>
        </mxCell>
        <mxCell id="LiaBlkNXl9YPgVuIt6pR-74" value="" style="ellipse;whiteSpace=wrap;html=1;aspect=fixed;" parent="1" vertex="1">
          <mxGeometry x="321" y="15.5" width="15.5" height="15.5" as="geometry" />
        </mxCell>
        <mxCell id="LiaBlkNXl9YPgVuIt6pR-80" style="edgeStyle=orthogonalEdgeStyle;rounded=0;orthogonalLoop=1;jettySize=auto;html=1;exitX=0;exitY=0.5;exitDx=0;exitDy=0;entryX=0;entryY=0.5;entryDx=0;entryDy=0;" parent="1" source="LiaBlkNXl9YPgVuIt6pR-79" target="LiaBlkNXl9YPgVuIt6pR-49" edge="1">
          <mxGeometry relative="1" as="geometry">
            <Array as="points">
              <mxPoint x="82" y="165" />
              <mxPoint x="82" y="69" />
            </Array>
          </mxGeometry>
        </mxCell>
        <mxCell id="LiaBlkNXl9YPgVuIt6pR-86" value="hdlib.arithmetic" style="rounded=0;whiteSpace=wrap;html=1;strokeWidth=3;fillColor=#dae8fc;strokeColor=#6c8ebf;" parent="1" vertex="1">
          <mxGeometry x="99" y="220" width="120" height="20" as="geometry" />
        </mxCell>
        <mxCell id="LiaBlkNXl9YPgVuIt6pR-88" value="&lt;b&gt;&lt;font color=&quot;#3333ff&quot;&gt;from&lt;/font&gt;&lt;/b&gt; hdlib.arithmetic&amp;nbsp;&lt;b&gt;&lt;font color=&quot;#3333ff&quot;&gt;import&lt;/font&gt;&lt;/b&gt; bind, bundle, permute" style="text;html=1;strokeColor=none;fillColor=none;align=center;verticalAlign=middle;whiteSpace=wrap;rounded=0;" parent="1" vertex="1">
          <mxGeometry x="99" y="238" width="280" height="30" as="geometry" />
        </mxCell>
        <mxCell id="LiaBlkNXl9YPgVuIt6pR-97" style="edgeStyle=orthogonalEdgeStyle;rounded=0;orthogonalLoop=1;jettySize=auto;html=1;exitX=1;exitY=0.5;exitDx=0;exitDy=0;entryX=0;entryY=0.5;entryDx=0;entryDy=0;" parent="1" source="LiaBlkNXl9YPgVuIt6pR-96" target="LiaBlkNXl9YPgVuIt6pR-28" edge="1">
          <mxGeometry relative="1" as="geometry">
            <Array as="points">
              <mxPoint x="309" y="229" />
              <mxPoint x="309" y="133" />
            </Array>
          </mxGeometry>
        </mxCell>
        <mxCell id="LiaBlkNXl9YPgVuIt6pR-98" style="edgeStyle=orthogonalEdgeStyle;rounded=0;orthogonalLoop=1;jettySize=auto;html=1;exitX=1;exitY=0.5;exitDx=0;exitDy=0;entryX=0;entryY=0.5;entryDx=0;entryDy=0;" parent="1" source="LiaBlkNXl9YPgVuIt6pR-96" target="LiaBlkNXl9YPgVuIt6pR-33" edge="1">
          <mxGeometry relative="1" as="geometry">
            <Array as="points">
              <mxPoint x="309" y="229" />
              <mxPoint x="309" y="156" />
            </Array>
          </mxGeometry>
        </mxCell>
        <mxCell id="LiaBlkNXl9YPgVuIt6pR-99" style="edgeStyle=orthogonalEdgeStyle;rounded=0;orthogonalLoop=1;jettySize=auto;html=1;exitX=1;exitY=0.5;exitDx=0;exitDy=0;entryX=0;entryY=0.5;entryDx=0;entryDy=0;" parent="1" source="LiaBlkNXl9YPgVuIt6pR-96" target="LiaBlkNXl9YPgVuIt6pR-38" edge="1">
          <mxGeometry relative="1" as="geometry">
            <Array as="points">
              <mxPoint x="309" y="229" />
              <mxPoint x="309" y="179" />
            </Array>
          </mxGeometry>
        </mxCell>
        <mxCell id="LiaBlkNXl9YPgVuIt6pR-96" value="" style="ellipse;whiteSpace=wrap;html=1;aspect=fixed;" parent="1" vertex="1">
          <mxGeometry x="211" y="221.5" width="15.5" height="15.5" as="geometry" />
        </mxCell>
        <mxCell id="LiaBlkNXl9YPgVuIt6pR-103" value="" style="rounded=0;whiteSpace=wrap;html=1;" parent="1" vertex="1">
          <mxGeometry x="539" y="12" width="360" height="277" as="geometry" />
        </mxCell>
        <mxCell id="LiaBlkNXl9YPgVuIt6pR-105" value="hdlib.model.classification.ClassificationModel" style="text;html=1;strokeColor=none;fillColor=none;align=center;verticalAlign=middle;whiteSpace=wrap;rounded=0;" parent="1" vertex="1">
          <mxGeometry x="547" y="12" width="234" height="20" as="geometry" />
        </mxCell>
        <mxCell id="LiaBlkNXl9YPgVuIt6pR-140" value="1" style="ellipse;whiteSpace=wrap;html=1;aspect=fixed;strokeWidth=3;" parent="1" vertex="1">
          <mxGeometry x="270" y="3" width="19" height="19" as="geometry" />
        </mxCell>
        <mxCell id="LiaBlkNXl9YPgVuIt6pR-141" value="3" style="ellipse;whiteSpace=wrap;html=1;aspect=fixed;strokeWidth=3;" parent="1" vertex="1">
          <mxGeometry x="80" y="237" width="19" height="19" as="geometry" />
        </mxCell>
        <mxCell id="LiaBlkNXl9YPgVuIt6pR-142" value="4" style="ellipse;whiteSpace=wrap;html=1;aspect=fixed;strokeWidth=3;" parent="1" vertex="1">
          <mxGeometry x="880" y="3" width="19" height="19" as="geometry" />
        </mxCell>
        <mxCell id="LiaBlkNXl9YPgVuIt6pR-145" value="" style="rounded=0;whiteSpace=wrap;html=1;fillColor=#f5f5f5;fontColor=#333333;strokeColor=#666666;" parent="1" vertex="1">
          <mxGeometry x="539" y="33" width="360" height="255" as="geometry" />
        </mxCell>
        <mxCell id="LiaBlkNXl9YPgVuIt6pR-104" value="" style="endArrow=none;html=1;rounded=0;entryX=1;entryY=1;entryDx=0;entryDy=0;" parent="1" edge="1">
          <mxGeometry width="50" height="50" relative="1" as="geometry">
            <mxPoint x="541" y="32" as="sourcePoint" />
            <mxPoint x="899" y="32" as="targetPoint" />
          </mxGeometry>
        </mxCell>
        <mxCell id="LiaBlkNXl9YPgVuIt6pR-110" value="&lt;i&gt;&amp;nbsp;__init__&lt;/i&gt;" style="text;html=1;strokeColor=none;fillColor=none;align=right;verticalAlign=middle;whiteSpace=wrap;rounded=0;" parent="1" vertex="1">
          <mxGeometry x="606" y="35" width="50" height="20" as="geometry" />
        </mxCell>
        <mxCell id="LiaBlkNXl9YPgVuIt6pR-112" value="size &lt;b&gt;int&lt;/b&gt;, levels &lt;b&gt;int&lt;/b&gt;, vtype &lt;b&gt;str&lt;/b&gt;" style="text;html=1;strokeColor=none;fillColor=none;align=left;verticalAlign=middle;whiteSpace=wrap;rounded=0;" parent="1" vertex="1">
          <mxGeometry x="663" y="34" width="202" height="23" as="geometry" />
        </mxCell>
        <mxCell id="LiaBlkNXl9YPgVuIt6pR-114" value="&lt;i&gt;fit&lt;/i&gt;" style="text;html=1;strokeColor=none;fillColor=none;align=right;verticalAlign=middle;whiteSpace=wrap;rounded=0;" parent="1" vertex="1">
          <mxGeometry x="615" y="59" width="40" height="20" as="geometry" />
        </mxCell>
        <mxCell id="LiaBlkNXl9YPgVuIt6pR-115" value="points &lt;b&gt;list&lt;/b&gt;, labels &lt;b&gt;list&lt;/b&gt;" style="text;html=1;strokeColor=none;fillColor=none;align=left;verticalAlign=middle;whiteSpace=wrap;rounded=0;" parent="1" vertex="1">
          <mxGeometry x="663" y="58" width="202" height="20" as="geometry" />
        </mxCell>
        <mxCell id="LiaBlkNXl9YPgVuIt6pR-117" value="&lt;i&gt;predict&lt;/i&gt;" style="text;html=1;strokeColor=none;fillColor=none;align=right;verticalAlign=middle;whiteSpace=wrap;rounded=0;" parent="1" vertex="1">
          <mxGeometry x="615" y="80" width="40" height="20" as="geometry" />
        </mxCell>
        <mxCell id="LiaBlkNXl9YPgVuIt6pR-118" value="test_indices &lt;b&gt;list&lt;/b&gt;, retrain &lt;b&gt;int&lt;/b&gt;,&lt;br&gt;distance_method &lt;b&gt;str&lt;/b&gt;" style="text;html=1;strokeColor=none;fillColor=none;align=left;verticalAlign=middle;whiteSpace=wrap;rounded=0;" parent="1" vertex="1">
          <mxGeometry x="663" y="80" width="232" height="34" as="geometry" />
        </mxCell>
        <mxCell id="LiaBlkNXl9YPgVuIt6pR-120" value="&lt;i&gt;cross_val_predict&lt;/i&gt;" style="text;html=1;strokeColor=none;fillColor=none;align=right;verticalAlign=middle;whiteSpace=wrap;rounded=0;" parent="1" vertex="1">
          <mxGeometry x="555" y="116" width="100" height="20" as="geometry" />
        </mxCell>
        <mxCell id="LiaBlkNXl9YPgVuIt6pR-125" value="points &lt;b&gt;list&lt;/b&gt;, labels &lt;b&gt;list&lt;/b&gt;, cv&amp;nbsp;&lt;b style=&quot;border-color: var(--border-color);&quot;&gt;int&lt;/b&gt;&lt;span style=&quot;border-color: var(--border-color);&quot;&gt;,&amp;nbsp;&lt;/span&gt;retrain&amp;nbsp;&lt;b style=&quot;border-color: var(--border-color);&quot;&gt;int&lt;/b&gt;,&lt;br&gt;distance_method &lt;b&gt;str&lt;/b&gt;,&amp;nbsp;n_jobs &lt;b&gt;int&lt;/b&gt;" style="text;html=1;strokeColor=none;fillColor=none;align=left;verticalAlign=middle;whiteSpace=wrap;rounded=0;" parent="1" vertex="1">
          <mxGeometry x="662" y="116" width="232" height="34" as="geometry" />
        </mxCell>
        <mxCell id="LiaBlkNXl9YPgVuIt6pR-127" value="&lt;i&gt;auto_tune&lt;/i&gt;" style="text;html=1;strokeColor=none;fillColor=none;align=right;verticalAlign=middle;whiteSpace=wrap;rounded=0;" parent="1" vertex="1">
          <mxGeometry x="555" y="153" width="100" height="20" as="geometry" />
        </mxCell>
        <mxCell id="LiaBlkNXl9YPgVuIt6pR-128" value="points &lt;b&gt;list&lt;/b&gt;, labels &lt;b&gt;list&lt;/b&gt;, size_range &lt;b&gt;range&lt;/b&gt;,&lt;br&gt;levels_range &lt;b&gt;range&lt;/b&gt;, distance_method &lt;b&gt;str&lt;/b&gt;, &lt;br&gt;metric&amp;nbsp;&lt;b style=&quot;border-color: var(--border-color);&quot;&gt;str&lt;/b&gt;&lt;span style=&quot;border-color: var(--border-color);&quot;&gt;,&lt;/span&gt;&lt;b style=&quot;border-color: var(--border-color);&quot;&gt;&amp;nbsp;&lt;/b&gt;cv &lt;b&gt;int&lt;/b&gt;, retrain &lt;b&gt;int&lt;/b&gt;, n_jobs &lt;b&gt;int&lt;/b&gt;" style="text;html=1;strokeColor=none;fillColor=none;align=left;verticalAlign=middle;whiteSpace=wrap;rounded=0;" parent="1" vertex="1">
          <mxGeometry x="662" y="155" width="232" height="45" as="geometry" />
        </mxCell>
        <mxCell id="LiaBlkNXl9YPgVuIt6pR-131" value="&lt;i&gt;stepwise_regression&lt;br&gt;&lt;br&gt;&lt;br&gt;backward&lt;br&gt;forward&lt;br&gt;&lt;/i&gt;" style="text;html=1;strokeColor=none;fillColor=none;align=right;verticalAlign=middle;whiteSpace=wrap;rounded=0;" parent="1" vertex="1">
          <mxGeometry x="539" y="208" width="116" height="74" as="geometry" />
        </mxCell>
        <mxCell id="LiaBlkNXl9YPgVuIt6pR-132" value="" style="endArrow=none;html=1;rounded=0;dashed=1;" parent="1" edge="1">
          <mxGeometry width="50" height="50" relative="1" as="geometry">
            <mxPoint x="539" y="57" as="sourcePoint" />
            <mxPoint x="899" y="57" as="targetPoint" />
          </mxGeometry>
        </mxCell>
        <mxCell id="LiaBlkNXl9YPgVuIt6pR-133" value="" style="endArrow=none;html=1;rounded=0;dashed=1;" parent="1" edge="1">
          <mxGeometry width="50" height="50" relative="1" as="geometry">
            <mxPoint x="539" y="79" as="sourcePoint" />
            <mxPoint x="899" y="79" as="targetPoint" />
          </mxGeometry>
        </mxCell>
        <mxCell id="LiaBlkNXl9YPgVuIt6pR-134" value="" style="endArrow=none;html=1;rounded=0;dashed=1;" parent="1" edge="1">
          <mxGeometry width="50" height="50" relative="1" as="geometry">
            <mxPoint x="539" y="114" as="sourcePoint" />
            <mxPoint x="899" y="114" as="targetPoint" />
          </mxGeometry>
        </mxCell>
        <mxCell id="LiaBlkNXl9YPgVuIt6pR-135" value="" style="endArrow=none;html=1;rounded=0;dashed=1;" parent="1" edge="1">
          <mxGeometry width="50" height="50" relative="1" as="geometry">
            <mxPoint x="539" y="151" as="sourcePoint" />
            <mxPoint x="899" y="151" as="targetPoint" />
          </mxGeometry>
        </mxCell>
        <mxCell id="LiaBlkNXl9YPgVuIt6pR-136" value="" style="endArrow=none;html=1;rounded=0;dashed=1;" parent="1" edge="1">
          <mxGeometry width="50" height="50" relative="1" as="geometry">
            <mxPoint x="539" y="204" as="sourcePoint" />
            <mxPoint x="899" y="204" as="targetPoint" />
          </mxGeometry>
        </mxCell>
        <mxCell id="LiaBlkNXl9YPgVuIt6pR-137" value="points &lt;b&gt;list&lt;/b&gt;, features &lt;b&gt;list&lt;/b&gt;, labels &lt;b&gt;list&lt;/b&gt;, &lt;br&gt;method&amp;nbsp;&lt;b&gt;str&lt;/b&gt;, cv&amp;nbsp;&lt;b style=&quot;border-color: var(--border-color);&quot;&gt;int&lt;/b&gt;&lt;span style=&quot;border-color: var(--border-color);&quot;&gt;,&amp;nbsp;&lt;/span&gt;distance_method &lt;b&gt;str&lt;/b&gt;, &lt;br&gt;retrain &lt;b&gt;int&lt;/b&gt;, n_jobs &lt;b&gt;int&lt;/b&gt;, metric&amp;nbsp;&lt;b style=&quot;border-color: var(--border-color);&quot;&gt;str&lt;/b&gt;&lt;span style=&quot;border-color: var(--border-color);&quot;&gt;,&lt;br&gt;threshold &lt;b&gt;float&lt;/b&gt;, uncertainty &lt;b&gt;float&lt;/b&gt;,&lt;br&gt;stop_if_worse &lt;b&gt;bool&lt;/b&gt;&lt;br&gt;&lt;/span&gt;" style="text;html=1;strokeColor=none;fillColor=none;align=left;verticalAlign=middle;whiteSpace=wrap;rounded=0;" parent="1" vertex="1">
          <mxGeometry x="662" y="209" width="232" height="72" as="geometry" />
        </mxCell>
        <mxCell id="LiaBlkNXl9YPgVuIt6pR-138" value="" style="endArrow=none;html=1;rounded=0;" parent="1" edge="1">
          <mxGeometry width="50" height="50" relative="1" as="geometry">
            <mxPoint x="659" y="289" as="sourcePoint" />
            <mxPoint x="659" y="32" as="targetPoint" />
          </mxGeometry>
        </mxCell>
        <mxCell id="LiaBlkNXl9YPgVuIt6pR-146" value="" style="rounded=0;whiteSpace=wrap;html=1;fillColor=#f5f5f5;fontColor=#333333;strokeColor=#666666;" parent="1" vertex="1">
          <mxGeometry x="329" y="34" width="190" height="158" as="geometry" />
        </mxCell>
        <mxCell id="LiaBlkNXl9YPgVuIt6pR-21" value="name &lt;b&gt;str&lt;/b&gt;, size &lt;b&gt;int&lt;/b&gt;,&lt;br&gt;vector &lt;b&gt;numpy.ndarray&lt;/b&gt;,&lt;br&gt;vtype &lt;b&gt;str&lt;/b&gt;, tags &lt;b&gt;list&lt;/b&gt;" style="text;html=1;strokeColor=none;fillColor=none;align=left;verticalAlign=middle;whiteSpace=wrap;rounded=0;" parent="1" vertex="1">
          <mxGeometry x="387" y="37" width="136" height="45" as="geometry" />
        </mxCell>
        <mxCell id="LiaBlkNXl9YPgVuIt6pR-22" value="" style="endArrow=none;html=1;rounded=0;exitX=0;exitY=1;exitDx=0;exitDy=0;entryX=1;entryY=1;entryDx=0;entryDy=0;" parent="1" edge="1">
          <mxGeometry width="50" height="50" relative="1" as="geometry">
            <mxPoint x="329" y="33" as="sourcePoint" />
            <mxPoint x="519" y="33" as="targetPoint" />
          </mxGeometry>
        </mxCell>
        <mxCell id="LiaBlkNXl9YPgVuIt6pR-24" value="vector&amp;nbsp;&lt;b&gt;Vector&lt;/b&gt;,&lt;br&gt;method&amp;nbsp;&lt;b&gt;str&lt;/b&gt;" style="text;html=1;strokeColor=none;fillColor=none;align=left;verticalAlign=middle;whiteSpace=wrap;rounded=0;" parent="1" vertex="1">
          <mxGeometry x="387" y="89" width="136" height="30" as="geometry" />
        </mxCell>
        <mxCell id="LiaBlkNXl9YPgVuIt6pR-25" value="&lt;i&gt;&amp;nbsp;__init__&lt;/i&gt;" style="text;html=1;strokeColor=none;fillColor=none;align=right;verticalAlign=middle;whiteSpace=wrap;rounded=0;" parent="1" vertex="1">
          <mxGeometry x="329" y="36" width="50" height="20" as="geometry" />
        </mxCell>
        <mxCell id="LiaBlkNXl9YPgVuIt6pR-26" value="&lt;i&gt;dist&lt;/i&gt;" style="text;html=1;strokeColor=none;fillColor=none;align=right;verticalAlign=middle;whiteSpace=wrap;rounded=0;" parent="1" vertex="1">
          <mxGeometry x="329" y="87" width="50" height="20" as="geometry" />
        </mxCell>
        <mxCell id="LiaBlkNXl9YPgVuIt6pR-27" value="" style="endArrow=none;html=1;rounded=0;dashed=1;" parent="1" edge="1">
          <mxGeometry width="50" height="50" relative="1" as="geometry">
            <mxPoint x="329" y="86" as="sourcePoint" />
            <mxPoint x="519" y="86" as="targetPoint" />
          </mxGeometry>
        </mxCell>
        <mxCell id="LiaBlkNXl9YPgVuIt6pR-28" value="&lt;i&gt;bind&lt;/i&gt;" style="text;html=1;strokeColor=none;fillColor=none;align=right;verticalAlign=middle;whiteSpace=wrap;rounded=0;" parent="1" vertex="1">
          <mxGeometry x="329" y="123" width="50" height="20" as="geometry" />
        </mxCell>
        <mxCell id="LiaBlkNXl9YPgVuIt6pR-29" value="" style="endArrow=none;html=1;rounded=0;dashed=1;" parent="1" edge="1">
          <mxGeometry width="50" height="50" relative="1" as="geometry">
            <mxPoint x="329" y="121" as="sourcePoint" />
            <mxPoint x="519" y="121" as="targetPoint" />
          </mxGeometry>
        </mxCell>
        <mxCell id="LiaBlkNXl9YPgVuIt6pR-30" value="vector&amp;nbsp;&lt;b&gt;Vector&lt;/b&gt;" style="text;html=1;strokeColor=none;fillColor=none;align=left;verticalAlign=middle;whiteSpace=wrap;rounded=0;" parent="1" vertex="1">
          <mxGeometry x="387" y="123" width="136" height="20" as="geometry" />
        </mxCell>
        <mxCell id="LiaBlkNXl9YPgVuIt6pR-32" value="" style="endArrow=none;html=1;rounded=0;dashed=1;" parent="1" edge="1">
          <mxGeometry width="50" height="50" relative="1" as="geometry">
            <mxPoint x="329" y="144" as="sourcePoint" />
            <mxPoint x="519" y="144" as="targetPoint" />
          </mxGeometry>
        </mxCell>
        <mxCell id="LiaBlkNXl9YPgVuIt6pR-33" value="&lt;i&gt;bundle&lt;/i&gt;" style="text;html=1;strokeColor=none;fillColor=none;align=right;verticalAlign=middle;whiteSpace=wrap;rounded=0;" parent="1" vertex="1">
          <mxGeometry x="329" y="146" width="50" height="20" as="geometry" />
        </mxCell>
        <mxCell id="LiaBlkNXl9YPgVuIt6pR-35" value="vector&amp;nbsp;&lt;b&gt;Vector&lt;/b&gt;" style="text;html=1;strokeColor=none;fillColor=none;align=left;verticalAlign=middle;whiteSpace=wrap;rounded=0;" parent="1" vertex="1">
          <mxGeometry x="387" y="146" width="136" height="20" as="geometry" />
        </mxCell>
        <mxCell id="LiaBlkNXl9YPgVuIt6pR-36" value="" style="endArrow=none;html=1;rounded=0;dashed=1;" parent="1" edge="1">
          <mxGeometry width="50" height="50" relative="1" as="geometry">
            <mxPoint x="329" y="167" as="sourcePoint" />
            <mxPoint x="519" y="167" as="targetPoint" />
          </mxGeometry>
        </mxCell>
        <mxCell id="LiaBlkNXl9YPgVuIt6pR-38" value="&lt;i&gt;permute&lt;/i&gt;" style="text;html=1;strokeColor=none;fillColor=none;align=right;verticalAlign=middle;whiteSpace=wrap;rounded=0;" parent="1" vertex="1">
          <mxGeometry x="329" y="169" width="50" height="20" as="geometry" />
        </mxCell>
        <mxCell id="LiaBlkNXl9YPgVuIt6pR-39" value="rotate_by&amp;nbsp;&lt;b&gt;int&lt;/b&gt;" style="text;html=1;strokeColor=none;fillColor=none;align=left;verticalAlign=middle;whiteSpace=wrap;rounded=0;" parent="1" vertex="1">
          <mxGeometry x="387" y="169" width="136" height="20" as="geometry" />
        </mxCell>
        <mxCell id="LiaBlkNXl9YPgVuIt6pR-60" value="" style="endArrow=none;html=1;rounded=0;" parent="1" edge="1">
          <mxGeometry width="50" height="50" relative="1" as="geometry">
            <mxPoint x="383" y="193" as="sourcePoint" />
            <mxPoint x="383" y="33" as="targetPoint" />
          </mxGeometry>
        </mxCell>
        <mxCell id="LiaBlkNXl9YPgVuIt6pR-147" value="" style="rounded=0;whiteSpace=wrap;html=1;fillColor=#f5f5f5;fontColor=#333333;strokeColor=#666666;" parent="1" vertex="1">
          <mxGeometry x="99" y="34" width="190" height="158" as="geometry" />
        </mxCell>
        <mxCell id="LiaBlkNXl9YPgVuIt6pR-45" value="size &lt;b&gt;int&lt;/b&gt;, vtype &lt;b&gt;str&lt;/b&gt;" style="text;html=1;strokeColor=none;fillColor=none;align=left;verticalAlign=middle;whiteSpace=wrap;rounded=0;" parent="1" vertex="1">
          <mxGeometry x="157" y="38" width="136" height="16" as="geometry" />
        </mxCell>
        <mxCell id="LiaBlkNXl9YPgVuIt6pR-46" value="" style="endArrow=none;html=1;rounded=0;exitX=0;exitY=1;exitDx=0;exitDy=0;entryX=1;entryY=1;entryDx=0;entryDy=0;" parent="1" edge="1">
          <mxGeometry width="50" height="50" relative="1" as="geometry">
            <mxPoint x="99" y="33" as="sourcePoint" />
            <mxPoint x="289" y="33" as="targetPoint" />
          </mxGeometry>
        </mxCell>
        <mxCell id="LiaBlkNXl9YPgVuIt6pR-47" value="/" style="text;html=1;strokeColor=none;fillColor=none;align=left;verticalAlign=middle;whiteSpace=wrap;rounded=0;" parent="1" vertex="1">
          <mxGeometry x="157" y="62" width="136" height="14" as="geometry" />
        </mxCell>
        <mxCell id="LiaBlkNXl9YPgVuIt6pR-48" value="&lt;i&gt;&amp;nbsp;__init__&lt;/i&gt;" style="text;html=1;strokeColor=none;fillColor=none;align=right;verticalAlign=middle;whiteSpace=wrap;rounded=0;" parent="1" vertex="1">
          <mxGeometry x="99" y="36" width="50" height="20" as="geometry" />
        </mxCell>
        <mxCell id="LiaBlkNXl9YPgVuIt6pR-49" value="&lt;i&gt;memory&lt;/i&gt;" style="text;html=1;strokeColor=none;fillColor=none;align=right;verticalAlign=middle;whiteSpace=wrap;rounded=0;" parent="1" vertex="1">
          <mxGeometry x="99" y="59" width="50" height="20" as="geometry" />
        </mxCell>
        <mxCell id="LiaBlkNXl9YPgVuIt6pR-50" value="" style="endArrow=none;html=1;rounded=0;dashed=1;" parent="1" edge="1">
          <mxGeometry width="50" height="50" relative="1" as="geometry">
            <mxPoint x="99" y="58" as="sourcePoint" />
            <mxPoint x="289" y="58" as="targetPoint" />
          </mxGeometry>
        </mxCell>
        <mxCell id="LiaBlkNXl9YPgVuIt6pR-52" value="" style="endArrow=none;html=1;rounded=0;dashed=1;" parent="1" edge="1">
          <mxGeometry width="50" height="50" relative="1" as="geometry">
            <mxPoint x="99" y="80" as="sourcePoint" />
            <mxPoint x="289" y="80" as="targetPoint" />
          </mxGeometry>
        </mxCell>
        <mxCell id="LiaBlkNXl9YPgVuIt6pR-61" value="&lt;i&gt;get&lt;/i&gt;" style="text;html=1;strokeColor=none;fillColor=none;align=right;verticalAlign=middle;whiteSpace=wrap;rounded=0;" parent="1" vertex="1">
          <mxGeometry x="99" y="81" width="50" height="20" as="geometry" />
        </mxCell>
        <mxCell id="LiaBlkNXl9YPgVuIt6pR-62" value="names&amp;nbsp;&lt;b&gt;list&lt;/b&gt;, tags &lt;b&gt;list&lt;/b&gt;" style="text;html=1;strokeColor=none;fillColor=none;align=left;verticalAlign=middle;whiteSpace=wrap;rounded=0;" parent="1" vertex="1">
          <mxGeometry x="157" y="83" width="136" height="16" as="geometry" />
        </mxCell>
        <mxCell id="LiaBlkNXl9YPgVuIt6pR-63" value="" style="endArrow=none;html=1;rounded=0;dashed=1;" parent="1" edge="1">
          <mxGeometry width="50" height="50" relative="1" as="geometry">
            <mxPoint x="99" y="101" as="sourcePoint" />
            <mxPoint x="289" y="101" as="targetPoint" />
          </mxGeometry>
        </mxCell>
        <mxCell id="LiaBlkNXl9YPgVuIt6pR-64" value="&lt;i&gt;insert&lt;/i&gt;" style="text;html=1;strokeColor=none;fillColor=none;align=right;verticalAlign=middle;whiteSpace=wrap;rounded=0;" parent="1" vertex="1">
          <mxGeometry x="99" y="102" width="50" height="20" as="geometry" />
        </mxCell>
        <mxCell id="LiaBlkNXl9YPgVuIt6pR-65" value="vector &lt;b&gt;Vector&lt;/b&gt;" style="text;html=1;strokeColor=none;fillColor=none;align=left;verticalAlign=middle;whiteSpace=wrap;rounded=0;" parent="1" vertex="1">
          <mxGeometry x="157" y="104" width="132" height="16" as="geometry" />
        </mxCell>
        <mxCell id="LiaBlkNXl9YPgVuIt6pR-66" value="" style="endArrow=none;html=1;rounded=0;dashed=1;" parent="1" edge="1">
          <mxGeometry width="50" height="50" relative="1" as="geometry">
            <mxPoint x="99" y="122" as="sourcePoint" />
            <mxPoint x="289" y="122" as="targetPoint" />
          </mxGeometry>
        </mxCell>
        <mxCell id="LiaBlkNXl9YPgVuIt6pR-67" value="&lt;i&gt;remove&lt;/i&gt;" style="text;html=1;strokeColor=none;fillColor=none;align=right;verticalAlign=middle;whiteSpace=wrap;rounded=0;" parent="1" vertex="1">
          <mxGeometry x="99" y="123" width="50" height="20" as="geometry" />
        </mxCell>
        <mxCell id="LiaBlkNXl9YPgVuIt6pR-68" value="name&amp;nbsp;&lt;b&gt;str&lt;/b&gt;" style="text;html=1;strokeColor=none;fillColor=none;align=left;verticalAlign=middle;whiteSpace=wrap;rounded=0;" parent="1" vertex="1">
          <mxGeometry x="157" y="125" width="136" height="16" as="geometry" />
        </mxCell>
        <mxCell id="LiaBlkNXl9YPgVuIt6pR-69" value="" style="endArrow=none;html=1;rounded=0;dashed=1;" parent="1" edge="1">
          <mxGeometry width="50" height="50" relative="1" as="geometry">
            <mxPoint x="99" y="143" as="sourcePoint" />
            <mxPoint x="289" y="143" as="targetPoint" />
          </mxGeometry>
        </mxCell>
        <mxCell id="LiaBlkNXl9YPgVuIt6pR-70" value="&lt;i&gt;find&lt;/i&gt;" style="text;html=1;strokeColor=none;fillColor=none;align=right;verticalAlign=middle;whiteSpace=wrap;rounded=0;" parent="1" vertex="1">
          <mxGeometry x="99" y="144" width="50" height="20" as="geometry" />
        </mxCell>
        <mxCell id="LiaBlkNXl9YPgVuIt6pR-71" value="vector&amp;nbsp;&lt;b&gt;Vector&lt;/b&gt;, &lt;br&gt;threshold&amp;nbsp;&lt;b&gt;float&lt;/b&gt;,&lt;br&gt;method &lt;b&gt;str&lt;/b&gt;" style="text;html=1;strokeColor=none;fillColor=none;align=left;verticalAlign=middle;whiteSpace=wrap;rounded=0;" parent="1" vertex="1">
          <mxGeometry x="157" y="144" width="136" height="47" as="geometry" />
        </mxCell>
        <mxCell id="LiaBlkNXl9YPgVuIt6pR-73" value="" style="endArrow=none;html=1;rounded=0;" parent="1" edge="1">
          <mxGeometry width="50" height="50" relative="1" as="geometry">
            <mxPoint x="153" y="193" as="sourcePoint" />
            <mxPoint x="153" y="33" as="targetPoint" />
          </mxGeometry>
        </mxCell>
        <mxCell id="LiaBlkNXl9YPgVuIt6pR-79" value="" style="ellipse;whiteSpace=wrap;html=1;aspect=fixed;" parent="1" vertex="1">
          <mxGeometry x="91" y="157.5" width="15.5" height="15.5" as="geometry" />
        </mxCell>
        <mxCell id="2maI9EDIhwoQU8j4r-Qi-4" value="" style="rounded=0;whiteSpace=wrap;html=1;" parent="1" vertex="1">
          <mxGeometry x="531" y="420" width="370" height="140" as="geometry" />
        </mxCell>
        <mxCell id="2maI9EDIhwoQU8j4r-Qi-2" value="" style="rounded=0;whiteSpace=wrap;html=1;fillColor=#f5f5f5;fontColor=#333333;strokeColor=#666666;" parent="1" vertex="1">
          <mxGeometry x="531" y="439" width="370" height="120" as="geometry" />
        </mxCell>
        <mxCell id="2maI9EDIhwoQU8j4r-Qi-6" value="&lt;i&gt;&amp;nbsp;__init__&lt;/i&gt;" style="text;html=1;strokeColor=none;fillColor=none;align=right;verticalAlign=middle;whiteSpace=wrap;rounded=0;" parent="1" vertex="1">
          <mxGeometry x="527" y="440" width="96" height="20" as="geometry" />
        </mxCell>
        <mxCell id="2maI9EDIhwoQU8j4r-Qi-8" value="size &lt;b&gt;int&lt;/b&gt;, directed&amp;nbsp;&lt;b&gt;bool&lt;/b&gt;, seed &lt;b&gt;int&lt;/b&gt;" style="text;html=1;strokeColor=none;fillColor=none;align=left;verticalAlign=middle;whiteSpace=wrap;rounded=0;" parent="1" vertex="1">
          <mxGeometry x="631" y="442" width="186" height="16" as="geometry" />
        </mxCell>
        <mxCell id="2maI9EDIhwoQU8j4r-Qi-9" value="&lt;i&gt;error_rate&lt;/i&gt;" style="text;html=1;strokeColor=none;fillColor=none;align=right;verticalAlign=middle;whiteSpace=wrap;rounded=0;" parent="1" vertex="1">
          <mxGeometry x="527" y="460" width="96" height="20" as="geometry" />
        </mxCell>
        <mxCell id="2maI9EDIhwoQU8j4r-Qi-11" value="/" style="text;html=1;strokeColor=none;fillColor=none;align=left;verticalAlign=middle;whiteSpace=wrap;rounded=0;" parent="1" vertex="1">
          <mxGeometry x="631" y="463" width="136" height="14" as="geometry" />
        </mxCell>
        <mxCell id="2maI9EDIhwoQU8j4r-Qi-15" value="&lt;i&gt;error_mitigation&lt;/i&gt;" style="text;html=1;strokeColor=none;fillColor=none;align=right;verticalAlign=middle;whiteSpace=wrap;rounded=0;" parent="1" vertex="1">
          <mxGeometry x="527" y="480" width="96" height="20" as="geometry" />
        </mxCell>
        <mxCell id="2maI9EDIhwoQU8j4r-Qi-16" value="max_iter &lt;b&gt;int&lt;/b&gt;, nproc &lt;b&gt;int&lt;/b&gt;" style="text;html=1;strokeColor=none;fillColor=none;align=left;verticalAlign=middle;whiteSpace=wrap;rounded=0;" parent="1" vertex="1">
          <mxGeometry x="631" y="482" width="186" height="16" as="geometry" />
        </mxCell>
        <mxCell id="2maI9EDIhwoQU8j4r-Qi-17" value="&lt;i&gt;fit&lt;/i&gt;" style="text;html=1;strokeColor=none;fillColor=none;align=right;verticalAlign=middle;whiteSpace=wrap;rounded=0;" parent="1" vertex="1">
          <mxGeometry x="527" y="498" width="96" height="20" as="geometry" />
        </mxCell>
        <mxCell id="2maI9EDIhwoQU8j4r-Qi-20" value="edges &lt;b&gt;set&lt;/b&gt;, build_nodes_memory &lt;b&gt;bool&lt;/b&gt;" style="text;html=1;strokeColor=none;fillColor=none;align=left;verticalAlign=middle;whiteSpace=wrap;rounded=0;" parent="1" vertex="1">
          <mxGeometry x="631" y="500" width="220" height="16" as="geometry" />
        </mxCell>
        <mxCell id="2maI9EDIhwoQU8j4r-Qi-21" value="&lt;i&gt;edge_exists&lt;/i&gt;" style="text;html=1;strokeColor=none;fillColor=none;align=right;verticalAlign=middle;whiteSpace=wrap;rounded=0;" parent="1" vertex="1">
          <mxGeometry x="527" y="516" width="96" height="20" as="geometry" />
        </mxCell>
        <mxCell id="2maI9EDIhwoQU8j4r-Qi-22" value="node1 &lt;b&gt;str&lt;/b&gt;, node2 &lt;b&gt;str&lt;/b&gt;, weight &lt;b&gt;any&lt;/b&gt;, threshold &lt;b&gt;float&lt;/b&gt;" style="text;html=1;strokeColor=none;fillColor=none;align=left;verticalAlign=middle;whiteSpace=wrap;rounded=0;" parent="1" vertex="1">
          <mxGeometry x="631" y="518" width="269" height="16" as="geometry" />
        </mxCell>
        <mxCell id="2maI9EDIhwoQU8j4r-Qi-23" value="&lt;i&gt;predict&lt;/i&gt;" style="text;html=1;strokeColor=none;fillColor=none;align=right;verticalAlign=middle;whiteSpace=wrap;rounded=0;" parent="1" vertex="1">
          <mxGeometry x="527" y="534" width="96" height="20" as="geometry" />
        </mxCell>
        <mxCell id="2maI9EDIhwoQU8j4r-Qi-24" value="edges &lt;b&gt;set&lt;/b&gt;" style="text;html=1;strokeColor=none;fillColor=none;align=left;verticalAlign=middle;whiteSpace=wrap;rounded=0;" parent="1" vertex="1">
          <mxGeometry x="631" y="536" width="220" height="16" as="geometry" />
        </mxCell>
        <mxCell id="2maI9EDIhwoQU8j4r-Qi-25" value="" style="endArrow=none;html=1;rounded=0;" parent="1" edge="1">
          <mxGeometry width="50" height="50" relative="1" as="geometry">
            <mxPoint x="628" y="560" as="sourcePoint" />
            <mxPoint x="628" y="440" as="targetPoint" />
          </mxGeometry>
        </mxCell>
        <mxCell id="2maI9EDIhwoQU8j4r-Qi-26" value="" style="endArrow=none;html=1;rounded=0;dashed=1;" parent="1" edge="1">
          <mxGeometry width="50" height="50" relative="1" as="geometry">
            <mxPoint x="531" y="461" as="sourcePoint" />
            <mxPoint x="901" y="461" as="targetPoint" />
          </mxGeometry>
        </mxCell>
        <mxCell id="2maI9EDIhwoQU8j4r-Qi-27" value="" style="endArrow=none;html=1;rounded=0;dashed=1;" parent="1" edge="1">
          <mxGeometry width="50" height="50" relative="1" as="geometry">
            <mxPoint x="531" y="480" as="sourcePoint" />
            <mxPoint x="901" y="480" as="targetPoint" />
          </mxGeometry>
        </mxCell>
        <mxCell id="2maI9EDIhwoQU8j4r-Qi-28" value="" style="endArrow=none;html=1;rounded=0;dashed=1;" parent="1" edge="1">
          <mxGeometry width="50" height="50" relative="1" as="geometry">
            <mxPoint x="531" y="500" as="sourcePoint" />
            <mxPoint x="901" y="500" as="targetPoint" />
          </mxGeometry>
        </mxCell>
        <mxCell id="2maI9EDIhwoQU8j4r-Qi-29" value="" style="endArrow=none;html=1;rounded=0;dashed=1;" parent="1" edge="1">
          <mxGeometry width="50" height="50" relative="1" as="geometry">
            <mxPoint x="531" y="518" as="sourcePoint" />
            <mxPoint x="901" y="518" as="targetPoint" />
          </mxGeometry>
        </mxCell>
        <mxCell id="2maI9EDIhwoQU8j4r-Qi-30" value="" style="endArrow=none;html=1;rounded=0;dashed=1;" parent="1" edge="1">
          <mxGeometry width="50" height="50" relative="1" as="geometry">
            <mxPoint x="531" y="536" as="sourcePoint" />
            <mxPoint x="901" y="536" as="targetPoint" />
          </mxGeometry>
        </mxCell>
        <mxCell id="2maI9EDIhwoQU8j4r-Qi-31" value="hdlib.model.graph.GraphModel" style="text;html=1;strokeColor=none;fillColor=none;align=center;verticalAlign=middle;whiteSpace=wrap;rounded=0;" parent="1" vertex="1">
          <mxGeometry x="531" y="420" width="180" height="20" as="geometry" />
        </mxCell>
        <mxCell id="2maI9EDIhwoQU8j4r-Qi-33" value="" style="endArrow=none;html=1;rounded=0;" parent="1" edge="1">
          <mxGeometry width="50" height="50" relative="1" as="geometry">
            <mxPoint x="529" y="440" as="sourcePoint" />
            <mxPoint x="902" y="440" as="targetPoint" />
          </mxGeometry>
        </mxCell>
        <mxCell id="xltBiAbtLzyJ1PYhCGVp-3" value="2" style="ellipse;whiteSpace=wrap;html=1;aspect=fixed;strokeWidth=3;" vertex="1" parent="1">
          <mxGeometry x="500" y="2.5" width="19" height="19" as="geometry" />
        </mxCell>
        <mxCell id="2maI9EDIhwoQU8j4r-Qi-34" value="" style="rounded=0;whiteSpace=wrap;html=1;strokeColor=none;fillColor=default;gradientColor=none;gradientDirection=radial;glass=0;fillOpacity=70;" parent="1" vertex="1">
          <mxGeometry x="61" width="850" height="290" as="geometry" />
        </mxCell>
        <mxCell id="xltBiAbtLzyJ1PYhCGVp-6" value="8" style="ellipse;whiteSpace=wrap;html=1;aspect=fixed;strokeWidth=3;" vertex="1" parent="1">
          <mxGeometry x="882" y="410" width="19" height="19" as="geometry" />
        </mxCell>
        <mxCell id="xltBiAbtLzyJ1PYhCGVp-8" value="" style="rounded=0;whiteSpace=wrap;html=1;fillColor=#f5f5f5;fontColor=#333333;strokeColor=#666666;" vertex="1" parent="1">
          <mxGeometry x="259" y="330" width="260" height="40" as="geometry" />
        </mxCell>
        <mxCell id="xltBiAbtLzyJ1PYhCGVp-9" value="" style="endArrow=none;html=1;rounded=0;" edge="1" parent="1">
          <mxGeometry width="50" height="50" relative="1" as="geometry">
            <mxPoint x="259" y="329" as="sourcePoint" />
            <mxPoint x="519" y="329" as="targetPoint" />
          </mxGeometry>
        </mxCell>
        <mxCell id="xltBiAbtLzyJ1PYhCGVp-12" value="D &lt;b&gt;int&lt;/b&gt;, n_features&amp;nbsp;&lt;b&gt;int&lt;/b&gt;" style="text;html=1;strokeColor=none;fillColor=none;align=left;verticalAlign=middle;whiteSpace=wrap;rounded=0;" vertex="1" parent="1">
          <mxGeometry x="319" y="332" width="186" height="16" as="geometry" />
        </mxCell>
        <mxCell id="xltBiAbtLzyJ1PYhCGVp-13" value="&lt;i&gt;&amp;nbsp;__init__&lt;/i&gt;" style="text;html=1;strokeColor=none;fillColor=none;align=right;verticalAlign=middle;whiteSpace=wrap;rounded=0;" vertex="1" parent="1">
          <mxGeometry x="259" y="330" width="52" height="20" as="geometry" />
        </mxCell>
        <mxCell id="xltBiAbtLzyJ1PYhCGVp-14" value="&lt;i&gt;encode&lt;/i&gt;" style="text;html=1;strokeColor=none;fillColor=none;align=right;verticalAlign=middle;whiteSpace=wrap;rounded=0;" vertex="1" parent="1">
          <mxGeometry x="259" y="350" width="52" height="20" as="geometry" />
        </mxCell>
        <mxCell id="xltBiAbtLzyJ1PYhCGVp-15" value="feature_vector &lt;b&gt;numpy.ndarray&lt;/b&gt;" style="text;html=1;strokeColor=none;fillColor=none;align=left;verticalAlign=middle;whiteSpace=wrap;rounded=0;" vertex="1" parent="1">
          <mxGeometry x="319" y="352" width="176" height="16" as="geometry" />
        </mxCell>
        <mxCell id="xltBiAbtLzyJ1PYhCGVp-16" value="" style="endArrow=none;html=1;rounded=0;dashed=1;" edge="1" parent="1">
          <mxGeometry width="50" height="50" relative="1" as="geometry">
            <mxPoint x="259" y="351" as="sourcePoint" />
            <mxPoint x="519" y="351" as="targetPoint" />
          </mxGeometry>
        </mxCell>
        <mxCell id="xltBiAbtLzyJ1PYhCGVp-17" value="" style="endArrow=none;html=1;rounded=0;exitX=0.5;exitY=1;exitDx=0;exitDy=0;entryX=0.5;entryY=0;entryDx=0;entryDy=0;" edge="1" parent="1">
          <mxGeometry width="50" height="50" relative="1" as="geometry">
            <mxPoint x="315" y="370" as="sourcePoint" />
            <mxPoint x="315" y="330" as="targetPoint" />
          </mxGeometry>
        </mxCell>
        <mxCell id="xltBiAbtLzyJ1PYhCGVp-18" value="hdlib.model.regression.RegressionEncoder" style="text;html=1;strokeColor=none;fillColor=none;align=center;verticalAlign=middle;whiteSpace=wrap;rounded=0;" vertex="1" parent="1">
          <mxGeometry x="281" y="310" width="196" height="20" as="geometry" />
        </mxCell>
        <mxCell id="xltBiAbtLzyJ1PYhCGVp-22" value="6" style="ellipse;whiteSpace=wrap;html=1;aspect=fixed;strokeWidth=3;" vertex="1" parent="1">
          <mxGeometry x="500" y="301" width="19" height="19" as="geometry" />
        </mxCell>
        <mxCell id="xltBiAbtLzyJ1PYhCGVp-23" value="" style="rounded=0;whiteSpace=wrap;html=1;" vertex="1" parent="1">
          <mxGeometry x="29" y="392" width="490" height="109" as="geometry" />
        </mxCell>
        <mxCell id="xltBiAbtLzyJ1PYhCGVp-24" value="" style="rounded=0;whiteSpace=wrap;html=1;fillColor=#f5f5f5;fontColor=#333333;strokeColor=#666666;" vertex="1" parent="1">
          <mxGeometry x="29" y="410" width="490" height="90" as="geometry" />
        </mxCell>
        <mxCell id="xltBiAbtLzyJ1PYhCGVp-25" value="" style="endArrow=none;html=1;rounded=0;" edge="1" parent="1">
          <mxGeometry width="50" height="50" relative="1" as="geometry">
            <mxPoint x="29" y="411" as="sourcePoint" />
            <mxPoint x="519" y="411" as="targetPoint" />
          </mxGeometry>
        </mxCell>
        <mxCell id="xltBiAbtLzyJ1PYhCGVp-26" value="D &lt;b&gt;int&lt;/b&gt;, n_features&amp;nbsp;&lt;b&gt;int&lt;/b&gt;, k_models &lt;b&gt;int&lt;/b&gt;, learning_rate &lt;b&gt;float&lt;/b&gt;,&amp;nbsp;&lt;div&gt;iterations &lt;b&gt;int&lt;/b&gt;, binary_threshold &lt;b&gt;float&lt;/b&gt;&lt;/div&gt;" style="text;html=1;strokeColor=none;fillColor=none;align=left;verticalAlign=middle;whiteSpace=wrap;rounded=0;" vertex="1" parent="1">
          <mxGeometry x="219" y="413" width="300" height="28" as="geometry" />
        </mxCell>
        <mxCell id="xltBiAbtLzyJ1PYhCGVp-27" value="&lt;i&gt;&amp;nbsp;__init__&lt;/i&gt;" style="text;html=1;strokeColor=none;fillColor=none;align=right;verticalAlign=middle;whiteSpace=wrap;rounded=0;" vertex="1" parent="1">
          <mxGeometry x="159" y="411" width="52" height="20" as="geometry" />
        </mxCell>
        <mxCell id="xltBiAbtLzyJ1PYhCGVp-28" value="&lt;i&gt;fit&lt;/i&gt;" style="text;html=1;strokeColor=none;fillColor=none;align=right;verticalAlign=middle;whiteSpace=wrap;rounded=0;" vertex="1" parent="1">
          <mxGeometry x="159" y="441" width="52" height="20" as="geometry" />
        </mxCell>
        <mxCell id="xltBiAbtLzyJ1PYhCGVp-29" value="X &lt;b&gt;numpy.ndarray&lt;/b&gt;, y &lt;b&gt;numpy.ndarray&lt;/b&gt;" style="text;html=1;strokeColor=none;fillColor=none;align=left;verticalAlign=middle;whiteSpace=wrap;rounded=0;" vertex="1" parent="1">
          <mxGeometry x="219" y="443" width="300" height="16" as="geometry" />
        </mxCell>
        <mxCell id="xltBiAbtLzyJ1PYhCGVp-30" value="" style="endArrow=none;html=1;rounded=0;dashed=1;" edge="1" parent="1">
          <mxGeometry width="50" height="50" relative="1" as="geometry">
            <mxPoint x="29" y="443" as="sourcePoint" />
            <mxPoint x="519" y="443" as="targetPoint" />
          </mxGeometry>
        </mxCell>
        <mxCell id="xltBiAbtLzyJ1PYhCGVp-32" value="hdlib.model.regression.RegressionModel" style="text;html=1;strokeColor=none;fillColor=none;align=center;verticalAlign=middle;whiteSpace=wrap;rounded=0;" vertex="1" parent="1">
          <mxGeometry x="47" y="391" width="196" height="20" as="geometry" />
        </mxCell>
        <mxCell id="xltBiAbtLzyJ1PYhCGVp-33" value="7" style="ellipse;whiteSpace=wrap;html=1;aspect=fixed;strokeWidth=3;" vertex="1" parent="1">
          <mxGeometry x="500" y="381" width="19" height="19" as="geometry" />
        </mxCell>
        <mxCell id="xltBiAbtLzyJ1PYhCGVp-34" value="&lt;i&gt;predict&lt;/i&gt;" style="text;html=1;strokeColor=none;fillColor=none;align=right;verticalAlign=middle;whiteSpace=wrap;rounded=0;" vertex="1" parent="1">
          <mxGeometry x="159" y="461" width="52" height="20" as="geometry" />
        </mxCell>
        <mxCell id="xltBiAbtLzyJ1PYhCGVp-35" value="X_query&amp;nbsp;&lt;b&gt;numpy.ndarray&lt;/b&gt;" style="text;html=1;strokeColor=none;fillColor=none;align=left;verticalAlign=middle;whiteSpace=wrap;rounded=0;" vertex="1" parent="1">
          <mxGeometry x="219" y="463" width="300" height="16" as="geometry" />
        </mxCell>
        <mxCell id="xltBiAbtLzyJ1PYhCGVp-36" value="&lt;i&gt;set_quantized_prediction_model&lt;/i&gt;" style="text;html=1;strokeColor=none;fillColor=none;align=right;verticalAlign=middle;whiteSpace=wrap;rounded=0;" vertex="1" parent="1">
          <mxGeometry x="29" y="481" width="182" height="20" as="geometry" />
        </mxCell>
        <mxCell id="xltBiAbtLzyJ1PYhCGVp-37" value="enable&amp;nbsp;&lt;b&gt;bool&lt;/b&gt;" style="text;html=1;strokeColor=none;fillColor=none;align=left;verticalAlign=middle;whiteSpace=wrap;rounded=0;" vertex="1" parent="1">
          <mxGeometry x="219" y="483" width="300" height="16" as="geometry" />
        </mxCell>
        <mxCell id="xltBiAbtLzyJ1PYhCGVp-38" value="" style="endArrow=none;html=1;rounded=0;" edge="1" parent="1">
          <mxGeometry width="50" height="50" relative="1" as="geometry">
            <mxPoint x="215" y="499" as="sourcePoint" />
            <mxPoint x="215" y="411" as="targetPoint" />
          </mxGeometry>
        </mxCell>
        <mxCell id="xltBiAbtLzyJ1PYhCGVp-39" value="" style="endArrow=none;html=1;rounded=0;dashed=1;" edge="1" parent="1">
          <mxGeometry width="50" height="50" relative="1" as="geometry">
            <mxPoint x="29" y="462" as="sourcePoint" />
            <mxPoint x="519" y="462" as="targetPoint" />
          </mxGeometry>
        </mxCell>
        <mxCell id="xltBiAbtLzyJ1PYhCGVp-40" value="" style="endArrow=none;html=1;rounded=0;dashed=1;" edge="1" parent="1">
          <mxGeometry width="50" height="50" relative="1" as="geometry">
            <mxPoint x="29" y="482" as="sourcePoint" />
            <mxPoint x="519" y="482" as="targetPoint" />
          </mxGeometry>
        </mxCell>
        <mxCell id="xltBiAbtLzyJ1PYhCGVp-42" style="edgeStyle=none;curved=0;rounded=0;orthogonalLoop=1;jettySize=auto;html=1;exitX=0;exitY=0.5;exitDx=0;exitDy=0;fontSize=12;startSize=8;endSize=8;" edge="1" parent="1" source="xltBiAbtLzyJ1PYhCGVp-41">
          <mxGeometry relative="1" as="geometry">
            <mxPoint x="260" y="340" as="targetPoint" />
            <Array as="points">
              <mxPoint x="9" y="427" />
              <mxPoint x="9" y="340" />
            </Array>
          </mxGeometry>
        </mxCell>
        <mxCell id="xltBiAbtLzyJ1PYhCGVp-41" value="" style="ellipse;whiteSpace=wrap;html=1;aspect=fixed;" vertex="1" parent="1">
          <mxGeometry x="21" y="419" width="15.5" height="15.5" as="geometry" />
        </mxCell>
        <mxCell id="xltBiAbtLzyJ1PYhCGVp-43" value="" style="rounded=0;whiteSpace=wrap;html=1;" vertex="1" parent="1">
          <mxGeometry x="531" y="310" width="370" height="90" as="geometry" />
        </mxCell>
        <mxCell id="xltBiAbtLzyJ1PYhCGVp-44" value="" style="rounded=0;whiteSpace=wrap;html=1;fillColor=#f5f5f5;fontColor=#333333;strokeColor=#666666;" vertex="1" parent="1">
          <mxGeometry x="531" y="329" width="370" height="70" as="geometry" />
        </mxCell>
        <mxCell id="xltBiAbtLzyJ1PYhCGVp-45" value="&lt;i&gt;&amp;nbsp;__init__&lt;/i&gt;" style="text;html=1;strokeColor=none;fillColor=none;align=right;verticalAlign=middle;whiteSpace=wrap;rounded=0;" vertex="1" parent="1">
          <mxGeometry x="527" y="330" width="96" height="20" as="geometry" />
        </mxCell>
        <mxCell id="xltBiAbtLzyJ1PYhCGVp-46" value="k &lt;b&gt;int&lt;/b&gt;, n_features &lt;b&gt;int&lt;/b&gt;, size &lt;b&gt;int&lt;/b&gt;, vtype &lt;b&gt;str&lt;/b&gt;,&lt;div&gt;max_iter &lt;b&gt;int&lt;/b&gt;, seed &lt;b&gt;int&lt;/b&gt;&lt;/div&gt;" style="text;html=1;strokeColor=none;fillColor=none;align=left;verticalAlign=middle;whiteSpace=wrap;rounded=0;" vertex="1" parent="1">
          <mxGeometry x="631" y="338" width="241" height="16" as="geometry" />
        </mxCell>
        <mxCell id="xltBiAbtLzyJ1PYhCGVp-47" value="&lt;i&gt;fit&lt;/i&gt;" style="text;html=1;strokeColor=none;fillColor=none;align=right;verticalAlign=middle;whiteSpace=wrap;rounded=0;" vertex="1" parent="1">
          <mxGeometry x="527" y="360" width="96" height="20" as="geometry" />
        </mxCell>
        <mxCell id="xltBiAbtLzyJ1PYhCGVp-48" value="X &lt;b&gt;numpy.ndarray&lt;/b&gt;" style="text;html=1;strokeColor=none;fillColor=none;align=left;verticalAlign=middle;whiteSpace=wrap;rounded=0;" vertex="1" parent="1">
          <mxGeometry x="631" y="363" width="136" height="14" as="geometry" />
        </mxCell>
        <mxCell id="xltBiAbtLzyJ1PYhCGVp-49" value="&lt;i&gt;predict&lt;/i&gt;" style="text;html=1;strokeColor=none;fillColor=none;align=right;verticalAlign=middle;whiteSpace=wrap;rounded=0;" vertex="1" parent="1">
          <mxGeometry x="527" y="380" width="96" height="20" as="geometry" />
        </mxCell>
        <mxCell id="xltBiAbtLzyJ1PYhCGVp-50" value="X &lt;b&gt;numpy.ndarray&lt;/b&gt;" style="text;html=1;strokeColor=none;fillColor=none;align=left;verticalAlign=middle;whiteSpace=wrap;rounded=0;" vertex="1" parent="1">
          <mxGeometry x="631" y="382" width="186" height="16" as="geometry" />
        </mxCell>
        <mxCell id="xltBiAbtLzyJ1PYhCGVp-57" value="" style="endArrow=none;html=1;rounded=0;" edge="1" parent="1">
          <mxGeometry width="50" height="50" relative="1" as="geometry">
            <mxPoint x="628" y="400" as="sourcePoint" />
            <mxPoint x="628" y="330" as="targetPoint" />
          </mxGeometry>
        </mxCell>
        <mxCell id="xltBiAbtLzyJ1PYhCGVp-58" value="" style="endArrow=none;html=1;rounded=0;dashed=1;" edge="1" parent="1">
          <mxGeometry width="50" height="50" relative="1" as="geometry">
            <mxPoint x="531" y="361" as="sourcePoint" />
            <mxPoint x="901" y="361" as="targetPoint" />
          </mxGeometry>
        </mxCell>
        <mxCell id="xltBiAbtLzyJ1PYhCGVp-59" value="" style="endArrow=none;html=1;rounded=0;dashed=1;" edge="1" parent="1">
          <mxGeometry width="50" height="50" relative="1" as="geometry">
            <mxPoint x="531" y="380" as="sourcePoint" />
            <mxPoint x="901" y="380" as="targetPoint" />
          </mxGeometry>
        </mxCell>
        <mxCell id="xltBiAbtLzyJ1PYhCGVp-63" value="hdlib.model.clustering.ClusteringModel" style="text;html=1;strokeColor=none;fillColor=none;align=center;verticalAlign=middle;whiteSpace=wrap;rounded=0;" vertex="1" parent="1">
          <mxGeometry x="531" y="310" width="221" height="20" as="geometry" />
        </mxCell>
        <mxCell id="xltBiAbtLzyJ1PYhCGVp-64" value="" style="endArrow=none;html=1;rounded=0;" edge="1" parent="1">
          <mxGeometry width="50" height="50" relative="1" as="geometry">
            <mxPoint x="529" y="330" as="sourcePoint" />
            <mxPoint x="902" y="330" as="targetPoint" />
          </mxGeometry>
        </mxCell>
        <mxCell id="xltBiAbtLzyJ1PYhCGVp-65" value="5" style="ellipse;whiteSpace=wrap;html=1;aspect=fixed;strokeWidth=3;" vertex="1" parent="1">
          <mxGeometry x="882" y="300" width="19" height="19" as="geometry" />
        </mxCell>
      </root>
    </mxGraphModel>
  </diagram>
</mxfile>
